<svg width="100" height="61" viewBox="0 0 100 61" fill="none" xmlns="http://www.w3.org/2000/svg">
  <path fill-rule="evenodd" clip-rule="evenodd" d="M5.38205 0H94.618C97.5784 0 100 2.15244 100 4.78478V56.2152C100 58.8476 97.5784 61 94.618 61H5.38205C2.42161 61 0 58.8476 0 56.2152V4.78478C0 2.15244 2.42161 0 5.38205 0Z" fill="#FFEC00"/>
  <path fill-rule="evenodd" clip-rule="evenodd" d="M63.7088 44.4773C66.8749 44.4301 69.727 44.1532 72.2538 43.6481C75.125 43.0754 77.5753 42.2053 79.5999 41.0457L79.5967 41.0441C81.1017 40.1819 82.3037 39.2079 83.1933 38.1254V38.1191C83.375 37.8973 83.5424 37.677 83.6923 37.4567C84.6345 36.0705 85.1111 34.5412 85.1127 32.8718V32.8607C85.1127 29.4795 83.4994 26.4695 80.2775 23.8324C80.2759 23.8309 80.2711 23.8277 80.2695 23.8261C78.9734 22.7641 77.5147 21.8531 75.9747 21.0365C72.5073 19.2113 68.4166 17.8786 63.7073 17.0416C59.7169 16.3319 55.2787 15.9779 50.3956 15.9779C49.176 15.9779 48.1334 16.0173 47.2725 16.0975C46.2953 16.1872 45.5077 16.3445 44.9179 16.5695C44.1495 16.859 43.5628 17.2839 43.1643 17.8361V17.8424C42.7912 18.3632 42.6015 18.9627 42.6015 19.6361V39.0994C37.6977 39.0994 37.6674 39.1104 27.8917 39.0726C26.8555 39.0411 25.993 39.0443 24.9966 38.8004C24.6746 38.7296 24.3781 38.5518 24.3271 38.2749C24.2569 25.3319 24.2872 25.3712 24.2872 18.9391C24.2872 18.4277 24.1214 17.9573 23.7994 17.5325L23.7818 17.5104C23.4869 17.1249 23.0852 16.8181 22.5639 16.5617H22.5559C22.1382 16.3587 21.6855 16.2076 21.196 16.1085V16.1069C20.7337 16.0141 20.2491 15.9653 19.7437 15.9653C19.2049 15.9653 18.7059 16.0125 18.2468 16.1069V16.1117C17.7318 16.2171 17.2599 16.3807 16.8438 16.6073C16.3449 16.8795 15.9591 17.2131 15.6928 17.6017C15.4154 18.0108 15.2751 18.4592 15.2751 18.9407V38.6792C15.2815 39.3322 15.4011 39.9805 15.6817 40.5957H15.6769C16.0053 41.3116 16.1456 41.4516 16.5569 41.867C17.2344 42.5058 17.9646 42.9479 18.8494 43.3869C19.6815 43.7535 20.4436 43.9707 21.3571 44.1579C22.3582 44.3184 23.3801 44.4144 24.4004 44.4726C49.9078 44.5843 49.8775 44.5922 62.7444 44.4805C63.0728 44.4836 63.3932 44.482 63.7088 44.4773ZM63.7088 39.071C62.9946 39.0994 62.2788 39.1119 61.5662 39.1119H51.5371V21.3811C54.7239 21.466 57.6524 21.754 60.3275 22.248H60.3355C61.5056 22.4636 62.6312 22.72 63.7088 23.0158C65.5677 23.5241 67.2894 24.1503 68.8709 24.8929C71.2845 26.0242 73.0748 27.2751 74.2386 28.644C75.3322 29.9279 75.8806 31.3471 75.8806 32.8985C75.8806 34.4987 75.1059 35.9258 73.518 36.8777C72.3511 37.5779 70.2674 38.2245 68.9028 38.4967V38.4983C68.7147 38.5345 68.4357 38.5848 68.0339 38.6494C66.6135 38.8822 65.1628 39.0097 63.7088 39.071Z" fill="#333333"/>
</svg>
